<svg xmlns="http://www.w3.org/2000/svg" xmlns:xlink="http://www.w3.org/1999/xlink" width="500" zoomAndPan="magnify" viewBox="0 0 375 374.999991" height="500" preserveAspectRatio="xMidYMid meet" version="1.0"><defs><g/><clipPath id="12af351776"><path d="M 112.5 85 L 262.5 85 L 262.5 221.835938 L 112.5 221.835938 Z M 112.5 85 " clip-rule="nonzero"/></clipPath><clipPath id="a5c65db7eb"><path d="M 167 74.835938 L 206 74.835938 L 206 113 L 167 113 Z M 167 74.835938 " clip-rule="nonzero"/></clipPath><clipPath id="5a0fe0036b"><path d="M 96.777344 291.441406 L 102.070312 291.441406 L 102.070312 296.734375 L 96.777344 296.734375 Z M 96.777344 291.441406 " clip-rule="nonzero"/></clipPath><clipPath id="bd93bd2261"><path d="M 99.421875 291.441406 C 97.960938 291.441406 96.777344 292.625 96.777344 294.085938 C 96.777344 295.546875 97.960938 296.734375 99.421875 296.734375 C 100.882812 296.734375 102.070312 295.546875 102.070312 294.085938 C 102.070312 292.625 100.882812 291.441406 99.421875 291.441406 Z M 99.421875 291.441406 " clip-rule="nonzero"/></clipPath><clipPath id="386b5aae77"><path d="M 272.929688 291.441406 L 278.222656 291.441406 L 278.222656 296.734375 L 272.929688 296.734375 Z M 272.929688 291.441406 " clip-rule="nonzero"/></clipPath><clipPath id="b12d538562"><path d="M 275.578125 291.441406 C 274.117188 291.441406 272.929688 292.625 272.929688 294.085938 C 272.929688 295.546875 274.117188 296.734375 275.578125 296.734375 C 277.039062 296.734375 278.222656 295.546875 278.222656 294.085938 C 278.222656 292.625 277.039062 291.441406 275.578125 291.441406 Z M 275.578125 291.441406 " clip-rule="nonzero"/></clipPath></defs><rect x="-37.5" width="450" fill="#ffffff" y="-37.499999" height="449.999989" fill-opacity="1"/><rect x="-37.5" width="450" fill="#ffffff" y="-37.499999" height="449.999989" fill-opacity="1"/><path fill="#a67233" d="M 226.222656 205.027344 C 215.605469 213.84375 202.082031 219.246094 187.464844 219.449219 C 187.167969 219.457031 186.871094 219.457031 186.570312 219.457031 C 171.808594 219.457031 157.832031 214.371094 146.621094 204.992188 C 148.328125 203.519531 149.785156 202.5 152.632812 202.5 C 155.808594 202.5 157.253906 203.765625 159.25 205.507812 C 161.476562 207.464844 164.25 209.898438 169.515625 209.898438 C 174.78125 209.898438 177.558594 207.464844 179.789062 205.507812 C 181.78125 203.765625 183.222656 202.5 186.398438 202.5 C 189.574219 202.5 191.015625 203.765625 193.015625 205.507812 C 195.246094 207.464844 198.023438 209.898438 203.289062 209.898438 C 208.554688 209.898438 211.328125 207.464844 213.5625 205.507812 C 215.550781 203.765625 216.996094 202.5 220.171875 202.5 C 223.042969 202.5 224.5 203.535156 226.226562 205.03125 Z M 226.222656 205.027344 " fill-opacity="1" fill-rule="nonzero"/><path fill="#a67233" d="M 236.777344 193.9375 C 234.835938 196.570312 232.691406 199.046875 230.367188 201.347656 C 228.144531 199.40625 225.371094 197.027344 220.167969 197.027344 C 214.902344 197.027344 212.125 199.460938 209.902344 201.417969 C 207.902344 203.164062 206.460938 204.425781 203.285156 204.425781 C 200.109375 204.425781 198.660156 203.160156 196.667969 201.410156 C 194.4375 199.457031 191.660156 197.027344 186.394531 197.027344 C 181.128906 197.027344 178.355469 199.460938 176.128906 201.417969 C 174.132812 203.164062 172.6875 204.425781 169.511719 204.425781 C 166.339844 204.425781 164.894531 203.160156 162.902344 201.417969 C 160.671875 199.460938 157.898438 197.027344 152.632812 197.027344 C 147.472656 197.027344 144.703125 199.371094 142.496094 201.300781 C 140.171875 198.988281 138.054688 196.519531 136.15625 193.929688 C 141.15625 193.808594 143.851562 191.457031 146.023438 189.554688 C 148.011719 187.808594 149.457031 186.542969 152.632812 186.542969 C 155.804688 186.542969 157.25 187.808594 159.246094 189.554688 C 161.472656 191.507812 164.246094 193.945312 169.511719 193.945312 C 174.78125 193.945312 177.554688 191.507812 179.785156 189.554688 C 181.777344 187.808594 183.21875 186.542969 186.394531 186.542969 C 189.570312 186.542969 191.011719 187.808594 193.011719 189.554688 C 195.242188 191.507812 198.019531 193.945312 203.285156 193.945312 C 208.550781 193.945312 211.324219 191.507812 213.558594 189.554688 C 215.546875 187.808594 216.992188 186.542969 220.167969 186.542969 C 223.339844 186.542969 224.785156 187.808594 226.78125 189.554688 C 228.972656 191.476562 231.695312 193.851562 236.777344 193.9375 Z M 236.777344 193.9375 " fill-opacity="1" fill-rule="nonzero"/><g clip-path="url(#12af351776)"><path fill="#733702" d="M 246.699219 110.789062 C 250.625 111.710938 254.332031 115.132812 257.710938 120.949219 L 262.507812 118.164062 C 258.332031 110.972656 253.441406 106.675781 247.96875 105.386719 C 245.136719 104.71875 242.597656 104.972656 240.539062 105.527344 C 241.933594 101.613281 245.351562 97.617188 253.5625 97.839844 L 253.707031 92.289062 C 244.3125 92.042969 238.800781 96.339844 236.117188 101.828125 C 234.9375 97.773438 234.699219 92.902344 238.589844 89.847656 L 235.167969 85.484375 C 230.265625 89.320312 229.351562 94.546875 229.953125 99.339844 C 226.148438 97.292969 221.257812 96.128906 215.277344 97.089844 L 216.152344 102.5625 C 222.761719 101.507812 227.292969 103.691406 230.1875 106.164062 C 228.113281 106.175781 225.828125 106.554688 223.566406 107.625 C 219.339844 109.636719 216.230469 113.554688 214.316406 119.296875 L 219.582031 121.046875 C 220.996094 116.800781 223.140625 113.96875 225.945312 112.636719 C 227.777344 111.769531 229.714844 111.625 231.367188 111.769531 C 228.714844 115.558594 226.585938 122.464844 231 134.105469 L 236.195312 132.132812 C 232.769531 123.132812 234.027344 118.039062 235.65625 115.355469 C 244.546875 126.640625 249.265625 140.597656 249 155.101562 C 248.992188 155.371094 248.980469 155.640625 248.96875 155.910156 L 186.578125 118.476562 L 124.183594 155.921875 C 124.164062 155.253906 124.144531 154.59375 124.144531 153.929688 C 124.144531 139.347656 129.21875 125.324219 138.476562 114.152344 C 140.386719 116.355469 142.839844 121.53125 138.820312 132.132812 L 144.007812 134.105469 C 148.421875 122.464844 146.292969 115.558594 143.644531 111.765625 C 145.296875 111.625 147.230469 111.765625 149.0625 112.636719 C 151.875 113.96875 154.011719 116.796875 155.425781 121.046875 L 160.691406 119.296875 C 158.78125 113.554688 155.667969 109.632812 151.441406 107.625 C 149.191406 106.554688 146.910156 106.175781 144.851562 106.164062 C 147.75 103.695312 152.28125 101.511719 158.855469 102.5625 L 159.730469 97.085938 C 153.746094 96.125 148.859375 97.289062 145.054688 99.335938 C 145.652344 94.546875 144.738281 89.316406 139.839844 85.480469 L 136.414062 89.847656 C 140.304688 92.898438 140.066406 97.769531 138.890625 101.828125 C 136.207031 96.339844 130.699219 92.046875 121.296875 92.289062 L 121.445312 97.835938 C 129.644531 97.617188 133.074219 101.605469 134.46875 105.527344 C 132.410156 104.96875 129.867188 104.71875 127.039062 105.382812 C 121.5625 106.671875 116.671875 110.96875 112.5 118.160156 L 117.296875 120.945312 C 120.675781 115.132812 124.378906 111.710938 128.308594 110.785156 C 130.453125 110.28125 132.355469 110.613281 133.78125 111.117188 C 123.964844 123.199219 118.597656 138.265625 118.597656 153.929688 C 118.597656 172.265625 125.792969 189.457031 138.84375 202.328125 C 151.671875 214.976562 168.582031 221.90625 186.570312 221.90625 C 186.890625 221.90625 187.21875 221.90625 187.542969 221.898438 C 205.195312 221.652344 221.867188 214.605469 234.484375 202.042969 C 247.097656 189.492188 254.21875 172.847656 254.539062 155.199219 C 254.828125 139.3125 249.636719 124.035156 239.847656 111.710938 C 241.289062 110.964844 243.761719 110.09375 246.695312 110.789062 Z M 156.917969 142.746094 L 186.574219 124.949219 L 216.238281 142.746094 L 216.238281 178.351562 C 213.371094 179.171875 211.492188 180.8125 209.902344 182.214844 C 207.902344 183.957031 206.460938 185.222656 203.285156 185.222656 C 202.878906 185.222656 202.5 185.203125 202.144531 185.160156 L 202.144531 149.457031 L 170.695312 149.457031 L 170.695312 185.152344 C 170.332031 185.195312 169.9375 185.21875 169.511719 185.21875 C 166.339844 185.21875 164.894531 183.957031 162.902344 182.210938 C 161.375 180.867188 159.585938 179.300781 156.917969 178.449219 Z M 196.597656 155.007812 L 196.597656 182.144531 C 194.375 180.203125 191.609375 177.824219 186.398438 177.824219 C 181.230469 177.824219 178.460938 180.171875 176.25 182.109375 L 176.25 155.007812 Z M 132.058594 184.394531 C 128.207031 177.527344 125.703125 169.984375 124.679688 162.09375 L 151.371094 146.074219 L 151.371094 177.878906 C 146.917969 178.234375 144.410156 180.417969 142.367188 182.214844 C 140.371094 183.957031 138.925781 185.222656 135.753906 185.222656 C 134.019531 185.222656 132.878906 184.828125 132.058594 184.394531 Z M 187.464844 216.351562 C 187.167969 216.359375 186.871094 216.359375 186.570312 216.359375 C 171.808594 216.359375 157.832031 211.273438 146.621094 201.894531 C 148.328125 200.421875 149.785156 199.402344 152.632812 199.402344 C 155.808594 199.402344 157.253906 200.667969 159.25 202.410156 C 161.476562 204.367188 164.25 206.800781 169.515625 206.800781 C 174.78125 206.800781 177.558594 204.367188 179.789062 202.410156 C 181.78125 200.667969 183.222656 199.402344 186.398438 199.402344 C 189.574219 199.402344 191.015625 200.667969 193.015625 202.410156 C 195.246094 204.367188 198.023438 206.800781 203.289062 206.800781 C 208.554688 206.800781 211.328125 204.367188 213.5625 202.410156 C 215.550781 200.667969 216.996094 199.402344 220.171875 199.402344 C 223.042969 199.402344 224.5 200.4375 226.226562 201.933594 C 215.609375 210.75 202.085938 216.152344 187.46875 216.355469 Z M 230.367188 198.175781 C 228.144531 196.234375 225.371094 193.855469 220.167969 193.855469 C 214.902344 193.855469 212.125 196.289062 209.902344 198.246094 C 207.902344 199.992188 206.460938 201.253906 203.285156 201.253906 C 200.109375 201.253906 198.660156 199.988281 196.667969 198.238281 C 194.4375 196.285156 191.660156 193.855469 186.394531 193.855469 C 181.128906 193.855469 178.355469 196.289062 176.128906 198.246094 C 174.132812 199.992188 172.6875 201.253906 169.511719 201.253906 C 166.339844 201.253906 164.894531 199.988281 162.902344 198.246094 C 160.671875 196.289062 157.898438 193.855469 152.632812 193.855469 C 147.472656 193.855469 144.703125 196.199219 142.496094 198.128906 C 140.171875 195.816406 138.054688 193.347656 136.15625 190.757812 C 141.15625 190.636719 143.851562 188.285156 146.023438 186.382812 C 148.011719 184.636719 149.457031 183.371094 152.632812 183.371094 C 155.804688 183.371094 157.25 184.636719 159.246094 186.382812 C 161.472656 188.335938 164.246094 190.773438 169.511719 190.773438 C 174.78125 190.773438 177.554688 188.335938 179.785156 186.382812 C 181.777344 184.636719 183.21875 183.371094 186.394531 183.371094 C 189.570312 183.371094 191.011719 184.636719 193.011719 186.382812 C 195.242188 188.335938 198.019531 190.773438 203.285156 190.773438 C 208.550781 190.773438 211.324219 188.335938 213.558594 186.382812 C 215.546875 184.636719 216.992188 183.371094 220.167969 183.371094 C 223.339844 183.371094 224.785156 184.636719 226.78125 186.382812 C 228.972656 188.304688 231.695312 190.679688 236.777344 190.765625 C 234.835938 193.398438 232.691406 195.875 230.367188 198.175781 Z M 241.007812 184.253906 C 240.09375 184.777344 238.886719 185.222656 237.046875 185.222656 C 233.875 185.222656 232.429688 183.957031 230.4375 182.214844 C 228.449219 180.46875 226.023438 178.347656 221.789062 177.910156 L 221.789062 146.078125 L 248.464844 162.082031 C 247.402344 170.019531 244.816406 177.511719 241.007812 184.253906 Z M 241.007812 184.253906 " fill-opacity="1" fill-rule="nonzero"/></g><g clip-path="url(#a5c65db7eb)"><path fill="#733702" d="M 186.421875 112.464844 C 196.792969 112.464844 205.230469 104.027344 205.230469 93.65625 C 205.230469 83.289062 196.792969 74.851562 186.421875 74.851562 C 176.050781 74.851562 167.617188 83.289062 167.617188 93.660156 C 167.617188 104.03125 176.050781 112.464844 186.421875 112.464844 Z M 186.421875 80.402344 C 193.730469 80.402344 199.679688 86.347656 199.679688 93.65625 C 199.679688 100.96875 193.730469 106.914062 186.421875 106.914062 C 179.113281 106.914062 173.167969 100.96875 173.167969 93.65625 C 173.167969 86.347656 179.113281 80.402344 186.421875 80.402344 Z M 186.421875 80.402344 " fill-opacity="1" fill-rule="nonzero"/></g><g clip-path="url(#5a0fe0036b)"><g clip-path="url(#bd93bd2261)"><path fill="#733702" d="M 96.777344 291.441406 L 102.070312 291.441406 L 102.070312 296.734375 L 96.777344 296.734375 Z M 96.777344 291.441406 " fill-opacity="1" fill-rule="nonzero"/></g></g><g clip-path="url(#386b5aae77)"><g clip-path="url(#b12d538562)"><path fill="#733702" d="M 272.929688 291.441406 L 278.222656 291.441406 L 278.222656 296.734375 L 272.929688 296.734375 Z M 272.929688 291.441406 " fill-opacity="1" fill-rule="nonzero"/></g></g><g fill="#733702" fill-opacity="1"><g transform="translate(114.999995, 296.342618)"><g><path d="M 2.3125 0 L 2.3125 -5.96875 L 0.265625 -5.96875 L 0.265625 -7 L 5.640625 -7 L 5.640625 -5.96875 L 3.59375 -5.96875 L 3.59375 0 Z M 2.3125 0 "/></g></g></g><g fill="#733702" fill-opacity="1"><g transform="translate(125.907651, 296.342618)"><g><path d="M 0.65625 0 L 0.65625 -4.953125 L 1.796875 -4.953125 L 1.90625 -4.03125 C 2.09375 -4.351562 2.335938 -4.609375 2.640625 -4.796875 C 2.953125 -4.984375 3.316406 -5.078125 3.734375 -5.078125 L 3.734375 -3.734375 L 3.375 -3.734375 C 3.09375 -3.734375 2.84375 -3.6875 2.625 -3.59375 C 2.40625 -3.507812 2.234375 -3.359375 2.109375 -3.140625 C 1.992188 -2.929688 1.9375 -2.640625 1.9375 -2.265625 L 1.9375 0 Z M 0.65625 0 "/></g></g></g><g fill="#733702" fill-opacity="1"><g transform="translate(134.866081, 296.342618)"><g><path d="M 2.359375 0.125 C 1.929688 0.125 1.582031 0.0546875 1.3125 -0.078125 C 1.039062 -0.222656 0.835938 -0.40625 0.703125 -0.625 C 0.566406 -0.851562 0.5 -1.101562 0.5 -1.375 C 0.5 -1.832031 0.675781 -2.207031 1.03125 -2.5 C 1.394531 -2.789062 1.9375 -2.9375 2.65625 -2.9375 L 3.921875 -2.9375 L 3.921875 -3.046875 C 3.921875 -3.390625 3.820312 -3.640625 3.625 -3.796875 C 3.4375 -3.960938 3.195312 -4.046875 2.90625 -4.046875 C 2.644531 -4.046875 2.414062 -3.984375 2.21875 -3.859375 C 2.03125 -3.734375 1.914062 -3.550781 1.875 -3.3125 L 0.625 -3.3125 C 0.65625 -3.664062 0.773438 -3.976562 0.984375 -4.25 C 1.191406 -4.519531 1.460938 -4.722656 1.796875 -4.859375 C 2.128906 -5.003906 2.503906 -5.078125 2.921875 -5.078125 C 3.628906 -5.078125 4.1875 -4.898438 4.59375 -4.546875 C 5 -4.191406 5.203125 -3.691406 5.203125 -3.046875 L 5.203125 0 L 4.109375 0 L 3.984375 -0.796875 C 3.835938 -0.535156 3.632812 -0.316406 3.375 -0.140625 C 3.113281 0.0351562 2.773438 0.125 2.359375 0.125 Z M 2.65625 -0.875 C 3.019531 -0.875 3.300781 -0.992188 3.5 -1.234375 C 3.707031 -1.472656 3.835938 -1.769531 3.890625 -2.125 L 2.796875 -2.125 C 2.460938 -2.125 2.21875 -2.0625 2.0625 -1.9375 C 1.914062 -1.820312 1.84375 -1.671875 1.84375 -1.484375 C 1.84375 -1.296875 1.914062 -1.144531 2.0625 -1.03125 C 2.21875 -0.925781 2.414062 -0.875 2.65625 -0.875 Z M 2.65625 -0.875 "/></g></g></g><g fill="#733702" fill-opacity="1"><g transform="translate(145.633787, 296.342618)"><g><path d="M 1.984375 0 L 0.171875 -4.953125 L 1.515625 -4.953125 L 2.765625 -1.203125 L 4.03125 -4.953125 L 5.375 -4.953125 L 3.546875 0 Z M 1.984375 0 "/></g></g></g><g fill="#733702" fill-opacity="1"><g transform="translate(156.16159, 296.342618)"><g><path d="M 3.0625 0.125 C 2.5625 0.125 2.117188 0.0195312 1.734375 -0.1875 C 1.347656 -0.40625 1.039062 -0.707031 0.8125 -1.09375 C 0.59375 -1.488281 0.484375 -1.9375 0.484375 -2.4375 C 0.484375 -2.945312 0.59375 -3.398438 0.8125 -3.796875 C 1.03125 -4.203125 1.332031 -4.515625 1.71875 -4.734375 C 2.101562 -4.960938 2.550781 -5.078125 3.0625 -5.078125 C 3.550781 -5.078125 3.984375 -4.96875 4.359375 -4.75 C 4.734375 -4.539062 5.023438 -4.25 5.234375 -3.875 C 5.441406 -3.507812 5.546875 -3.101562 5.546875 -2.65625 C 5.546875 -2.582031 5.546875 -2.503906 5.546875 -2.421875 C 5.546875 -2.335938 5.539062 -2.253906 5.53125 -2.171875 L 1.765625 -2.171875 C 1.785156 -1.785156 1.914062 -1.484375 2.15625 -1.265625 C 2.40625 -1.046875 2.703125 -0.9375 3.046875 -0.9375 C 3.304688 -0.9375 3.523438 -0.992188 3.703125 -1.109375 C 3.878906 -1.222656 4.007812 -1.375 4.09375 -1.5625 L 5.40625 -1.5625 C 5.3125 -1.25 5.15625 -0.960938 4.9375 -0.703125 C 4.71875 -0.441406 4.445312 -0.238281 4.125 -0.09375 C 3.8125 0.0507812 3.457031 0.125 3.0625 0.125 Z M 3.0625 -4.046875 C 2.75 -4.046875 2.472656 -3.957031 2.234375 -3.78125 C 1.992188 -3.601562 1.84375 -3.332031 1.78125 -2.96875 L 4.25 -2.96875 C 4.226562 -3.289062 4.109375 -3.550781 3.890625 -3.75 C 3.671875 -3.945312 3.394531 -4.046875 3.0625 -4.046875 Z M 3.0625 -4.046875 "/></g></g></g><g fill="#733702" fill-opacity="1"><g transform="translate(167.139217, 296.342618)"><g><path d="M 0.65625 0 L 0.65625 -7.203125 L 1.9375 -7.203125 L 1.9375 0 Z M 0.65625 0 "/></g></g></g><g fill="#733702" fill-opacity="1"><g transform="translate(174.728177, 296.342618)"><g/></g></g><g fill="#733702" fill-opacity="1"><g transform="translate(182.10723, 296.342618)"><g><path d="M 2.921875 0.109375 C 2.410156 0.109375 1.960938 0.0195312 1.578125 -0.15625 C 1.203125 -0.332031 0.90625 -0.578125 0.6875 -0.890625 C 0.476562 -1.210938 0.375 -1.585938 0.375 -2.015625 C 0.375 -2.472656 0.5 -2.882812 0.75 -3.25 C 1.007812 -3.613281 1.390625 -3.90625 1.890625 -4.125 C 1.691406 -4.363281 1.546875 -4.582031 1.453125 -4.78125 C 1.367188 -4.988281 1.328125 -5.210938 1.328125 -5.453125 C 1.328125 -5.773438 1.40625 -6.0625 1.5625 -6.3125 C 1.726562 -6.5625 1.957031 -6.757812 2.25 -6.90625 C 2.550781 -7.050781 2.90625 -7.125 3.3125 -7.125 C 3.738281 -7.125 4.097656 -7.046875 4.390625 -6.890625 C 4.679688 -6.734375 4.898438 -6.523438 5.046875 -6.265625 C 5.203125 -6.003906 5.273438 -5.71875 5.265625 -5.40625 L 4.046875 -5.40625 C 4.046875 -5.644531 3.972656 -5.828125 3.828125 -5.953125 C 3.679688 -6.078125 3.507812 -6.140625 3.3125 -6.140625 C 3.082031 -6.140625 2.898438 -6.078125 2.765625 -5.953125 C 2.628906 -5.828125 2.5625 -5.660156 2.5625 -5.453125 C 2.5625 -5.285156 2.613281 -5.113281 2.71875 -4.9375 C 2.820312 -4.769531 2.976562 -4.570312 3.1875 -4.34375 L 5.15625 -2.40625 C 5.289062 -2.632812 5.4375 -2.898438 5.59375 -3.203125 L 5.8125 -3.640625 L 7.125 -3.640625 L 6.765625 -2.953125 C 6.503906 -2.421875 6.238281 -1.96875 5.96875 -1.59375 L 7.578125 0 L 6.046875 0 L 5.265625 -0.78125 C 4.929688 -0.46875 4.570312 -0.238281 4.1875 -0.09375 C 3.800781 0.0390625 3.378906 0.109375 2.921875 0.109375 Z M 1.625 -2.09375 C 1.625 -1.769531 1.742188 -1.492188 1.984375 -1.265625 C 2.222656 -1.046875 2.546875 -0.9375 2.953125 -0.9375 C 3.535156 -0.9375 4.039062 -1.144531 4.46875 -1.5625 L 2.625 -3.390625 C 2.28125 -3.242188 2.023438 -3.0625 1.859375 -2.84375 C 1.703125 -2.625 1.625 -2.375 1.625 -2.09375 Z M 1.625 -2.09375 "/></g></g></g><g fill="#733702" fill-opacity="1"><g transform="translate(194.824173, 296.342618)"><g><path d="M 0.6875 0 L 0.6875 -7 L 3.484375 -7 C 4.210938 -7 4.769531 -6.828125 5.15625 -6.484375 C 5.539062 -6.148438 5.734375 -5.722656 5.734375 -5.203125 C 5.734375 -4.765625 5.613281 -4.410156 5.375 -4.140625 C 5.132812 -3.878906 4.847656 -3.703125 4.515625 -3.609375 C 4.910156 -3.523438 5.238281 -3.328125 5.5 -3.015625 C 5.757812 -2.703125 5.890625 -2.332031 5.890625 -1.90625 C 5.890625 -1.351562 5.6875 -0.894531 5.28125 -0.53125 C 4.882812 -0.175781 4.320312 0 3.59375 0 Z M 1.953125 -4.0625 L 3.296875 -4.0625 C 3.660156 -4.0625 3.9375 -4.144531 4.125 -4.3125 C 4.320312 -4.476562 4.421875 -4.710938 4.421875 -5.015625 C 4.421875 -5.304688 4.320312 -5.535156 4.125 -5.703125 C 3.9375 -5.878906 3.65625 -5.96875 3.28125 -5.96875 L 1.953125 -5.96875 Z M 1.953125 -1.046875 L 3.390625 -1.046875 C 3.765625 -1.046875 4.054688 -1.128906 4.265625 -1.296875 C 4.484375 -1.472656 4.59375 -1.722656 4.59375 -2.046875 C 4.59375 -2.378906 4.484375 -2.632812 4.265625 -2.8125 C 4.046875 -3 3.75 -3.09375 3.375 -3.09375 L 1.953125 -3.09375 Z M 1.953125 -1.046875 "/></g></g></g><g fill="#733702" fill-opacity="1"><g transform="translate(206.131673, 296.342618)"><g><path d="M 2.515625 0.125 C 1.890625 0.125 1.40625 -0.0664062 1.0625 -0.453125 C 0.726562 -0.847656 0.5625 -1.414062 0.5625 -2.15625 L 0.5625 -4.953125 L 1.84375 -4.953125 L 1.84375 -2.28125 C 1.84375 -1.851562 1.925781 -1.523438 2.09375 -1.296875 C 2.269531 -1.066406 2.546875 -0.953125 2.921875 -0.953125 C 3.273438 -0.953125 3.566406 -1.078125 3.796875 -1.328125 C 4.023438 -1.585938 4.140625 -1.945312 4.140625 -2.40625 L 4.140625 -4.953125 L 5.421875 -4.953125 L 5.421875 0 L 4.296875 0 L 4.1875 -0.84375 C 4.03125 -0.550781 3.804688 -0.316406 3.515625 -0.140625 C 3.234375 0.0351562 2.898438 0.125 2.515625 0.125 Z M 2.515625 0.125 "/></g></g></g><g fill="#733702" fill-opacity="1"><g transform="translate(217.209267, 296.342618)"><g><path d="M 2.9375 0.125 C 2.46875 0.125 2.046875 0.0078125 1.671875 -0.21875 C 1.304688 -0.445312 1.015625 -0.753906 0.796875 -1.140625 C 0.585938 -1.535156 0.484375 -1.984375 0.484375 -2.484375 C 0.484375 -2.984375 0.585938 -3.425781 0.796875 -3.8125 C 1.015625 -4.207031 1.304688 -4.515625 1.671875 -4.734375 C 2.046875 -4.960938 2.46875 -5.078125 2.9375 -5.078125 C 3.300781 -5.078125 3.625 -5.003906 3.90625 -4.859375 C 4.1875 -4.722656 4.414062 -4.53125 4.59375 -4.28125 L 4.59375 -7.203125 L 5.875 -7.203125 L 5.875 0 L 4.734375 0 L 4.59375 -0.703125 C 4.425781 -0.484375 4.210938 -0.289062 3.953125 -0.125 C 3.691406 0.0390625 3.351562 0.125 2.9375 0.125 Z M 3.203125 -1 C 3.609375 -1 3.941406 -1.132812 4.203125 -1.40625 C 4.472656 -1.6875 4.609375 -2.046875 4.609375 -2.484375 C 4.609375 -2.910156 4.472656 -3.257812 4.203125 -3.53125 C 3.941406 -3.8125 3.609375 -3.953125 3.203125 -3.953125 C 2.796875 -3.953125 2.457031 -3.816406 2.1875 -3.546875 C 1.925781 -3.273438 1.796875 -2.921875 1.796875 -2.484375 C 1.796875 -2.054688 1.925781 -1.703125 2.1875 -1.421875 C 2.457031 -1.140625 2.796875 -1 3.203125 -1 Z M 3.203125 -1 "/></g></g></g><g fill="#733702" fill-opacity="1"><g transform="translate(228.726691, 296.342618)"><g><path d="M 2.75 -1.484375 C 2.507812 -1.484375 2.285156 -1.507812 2.078125 -1.5625 L 1.703125 -1.1875 C 1.816406 -1.125 1.96875 -1.070312 2.15625 -1.03125 C 2.351562 -1 2.671875 -0.960938 3.109375 -0.921875 C 3.765625 -0.859375 4.242188 -0.695312 4.546875 -0.4375 C 4.847656 -0.1875 5 0.15625 5 0.59375 C 5 0.894531 4.914062 1.175781 4.75 1.4375 C 4.59375 1.695312 4.347656 1.90625 4.015625 2.0625 C 3.679688 2.226562 3.253906 2.3125 2.734375 2.3125 C 2.035156 2.3125 1.46875 2.179688 1.03125 1.921875 C 0.59375 1.660156 0.375 1.265625 0.375 0.734375 C 0.375 0.285156 0.59375 -0.0976562 1.03125 -0.421875 C 0.894531 -0.484375 0.78125 -0.546875 0.6875 -0.609375 C 0.59375 -0.671875 0.507812 -0.738281 0.4375 -0.8125 L 0.4375 -1.046875 L 1.296875 -1.96875 C 0.910156 -2.3125 0.71875 -2.75 0.71875 -3.28125 C 0.71875 -3.613281 0.796875 -3.914062 0.953125 -4.1875 C 1.117188 -4.457031 1.351562 -4.671875 1.65625 -4.828125 C 1.957031 -4.992188 2.320312 -5.078125 2.75 -5.078125 C 3.03125 -5.078125 3.289062 -5.035156 3.53125 -4.953125 L 5.40625 -4.953125 L 5.40625 -4.1875 L 4.5625 -4.125 C 4.695312 -3.863281 4.765625 -3.582031 4.765625 -3.28125 C 4.765625 -2.945312 4.679688 -2.640625 4.515625 -2.359375 C 4.359375 -2.085938 4.128906 -1.875 3.828125 -1.71875 C 3.523438 -1.5625 3.164062 -1.484375 2.75 -1.484375 Z M 2.75 -2.453125 C 3.007812 -2.453125 3.222656 -2.519531 3.390625 -2.65625 C 3.566406 -2.800781 3.65625 -3.003906 3.65625 -3.265625 C 3.65625 -3.523438 3.566406 -3.722656 3.390625 -3.859375 C 3.222656 -4.003906 3.007812 -4.078125 2.75 -4.078125 C 2.476562 -4.078125 2.257812 -4.003906 2.09375 -3.859375 C 1.925781 -3.722656 1.84375 -3.523438 1.84375 -3.265625 C 1.84375 -3.003906 1.925781 -2.800781 2.09375 -2.65625 C 2.257812 -2.519531 2.476562 -2.453125 2.75 -2.453125 Z M 1.546875 0.609375 C 1.546875 0.859375 1.660156 1.039062 1.890625 1.15625 C 2.117188 1.28125 2.398438 1.34375 2.734375 1.34375 C 3.054688 1.34375 3.316406 1.273438 3.515625 1.140625 C 3.710938 1.015625 3.8125 0.84375 3.8125 0.625 C 3.8125 0.445312 3.75 0.296875 3.625 0.171875 C 3.5 0.0546875 3.238281 -0.015625 2.84375 -0.046875 C 2.570312 -0.0546875 2.320312 -0.0820312 2.09375 -0.125 C 1.894531 -0.0195312 1.753906 0.09375 1.671875 0.21875 C 1.585938 0.34375 1.546875 0.472656 1.546875 0.609375 Z M 1.546875 0.609375 "/></g></g></g><g fill="#733702" fill-opacity="1"><g transform="translate(239.414443, 296.342618)"><g><path d="M 3.0625 0.125 C 2.5625 0.125 2.117188 0.0195312 1.734375 -0.1875 C 1.347656 -0.40625 1.039062 -0.707031 0.8125 -1.09375 C 0.59375 -1.488281 0.484375 -1.9375 0.484375 -2.4375 C 0.484375 -2.945312 0.59375 -3.398438 0.8125 -3.796875 C 1.03125 -4.203125 1.332031 -4.515625 1.71875 -4.734375 C 2.101562 -4.960938 2.550781 -5.078125 3.0625 -5.078125 C 3.550781 -5.078125 3.984375 -4.96875 4.359375 -4.75 C 4.734375 -4.539062 5.023438 -4.25 5.234375 -3.875 C 5.441406 -3.507812 5.546875 -3.101562 5.546875 -2.65625 C 5.546875 -2.582031 5.546875 -2.503906 5.546875 -2.421875 C 5.546875 -2.335938 5.539062 -2.253906 5.53125 -2.171875 L 1.765625 -2.171875 C 1.785156 -1.785156 1.914062 -1.484375 2.15625 -1.265625 C 2.40625 -1.046875 2.703125 -0.9375 3.046875 -0.9375 C 3.304688 -0.9375 3.523438 -0.992188 3.703125 -1.109375 C 3.878906 -1.222656 4.007812 -1.375 4.09375 -1.5625 L 5.40625 -1.5625 C 5.3125 -1.25 5.15625 -0.960938 4.9375 -0.703125 C 4.71875 -0.441406 4.445312 -0.238281 4.125 -0.09375 C 3.8125 0.0507812 3.457031 0.125 3.0625 0.125 Z M 3.0625 -4.046875 C 2.75 -4.046875 2.472656 -3.957031 2.234375 -3.78125 C 1.992188 -3.601562 1.84375 -3.332031 1.78125 -2.96875 L 4.25 -2.96875 C 4.226562 -3.289062 4.109375 -3.550781 3.890625 -3.75 C 3.671875 -3.945312 3.394531 -4.046875 3.0625 -4.046875 Z M 3.0625 -4.046875 "/></g></g></g><g fill="#733702" fill-opacity="1"><g transform="translate(250.392072, 296.342618)"><g><path d="M 2.859375 0 C 2.335938 0 1.921875 -0.125 1.609375 -0.375 C 1.296875 -0.632812 1.140625 -1.085938 1.140625 -1.734375 L 1.140625 -3.890625 L 0.296875 -3.890625 L 0.296875 -4.953125 L 1.140625 -4.953125 L 1.296875 -6.296875 L 2.421875 -6.296875 L 2.421875 -4.953125 L 3.765625 -4.953125 L 3.765625 -3.890625 L 2.421875 -3.890625 L 2.421875 -1.71875 C 2.421875 -1.476562 2.472656 -1.3125 2.578125 -1.21875 C 2.679688 -1.132812 2.859375 -1.09375 3.109375 -1.09375 L 3.734375 -1.09375 L 3.734375 0 Z M 2.859375 0 "/></g></g></g><g fill="#733702" fill-opacity="1"><g transform="translate(259.609361, 296.342618)"><g/></g></g><g fill="#733702" fill-opacity="1"><g transform="translate(93.31673, 267.627491)"><g><path d="M 4.703125 0 L 4.703125 -39.203125 L 29.28125 -39.203125 L 29.28125 -31.140625 L 13.609375 -31.140625 L 13.609375 -21.34375 L 27.828125 -21.34375 L 27.828125 -13.5 L 13.609375 -13.5 L 13.609375 0 Z M 4.703125 0 "/></g></g></g><g fill="#733702" fill-opacity="1"><g transform="translate(121.704296, 267.627491)"><g><path d="M 14.0625 0.5625 C 10.582031 0.5625 7.832031 -0.25 5.8125 -1.875 C 3.800781 -3.5 2.796875 -5.726562 2.796875 -8.5625 C 2.796875 -11.289062 3.703125 -13.46875 5.515625 -15.09375 C 7.328125 -16.71875 9.765625 -17.53125 12.828125 -17.53125 L 23.46875 -17.53125 L 23.46875 -18.875 C 23.46875 -20.332031 22.941406 -21.5 21.890625 -22.375 C 20.847656 -23.25 19.488281 -23.6875 17.8125 -23.6875 C 16.425781 -23.6875 15.25 -23.367188 14.28125 -22.734375 C 13.3125 -22.097656 12.695312 -21.257812 12.4375 -20.21875 L 4.25 -20.21875 C 4.78125 -23.425781 6.226562 -25.890625 8.59375 -27.609375 C 10.96875 -29.328125 14.019531 -30.1875 17.75 -30.1875 C 22.15625 -30.1875 25.597656 -29.070312 28.078125 -26.84375 C 30.566406 -24.625 31.8125 -21.578125 31.8125 -17.703125 L 31.8125 0 L 25.484375 0 L 24.53125 -3.421875 C 21.945312 -0.765625 18.457031 0.5625 14.0625 0.5625 Z M 11.203125 -8.90625 C 11.203125 -7.894531 11.640625 -7.082031 12.515625 -6.46875 C 13.390625 -5.851562 14.554688 -5.546875 16.015625 -5.546875 C 18.140625 -5.546875 19.898438 -6.160156 21.296875 -7.390625 C 22.703125 -8.617188 23.441406 -10.222656 23.515625 -12.203125 L 15.453125 -12.203125 C 14.179688 -12.203125 13.15625 -11.90625 12.375 -11.3125 C 11.59375 -10.71875 11.203125 -9.914062 11.203125 -8.90625 Z M 11.203125 -8.90625 "/></g></g></g><g fill="#733702" fill-opacity="1"><g transform="translate(153.843337, 267.627491)"><g><path d="M 15.953125 0.78125 C 12.148438 0.78125 9.15625 -0.421875 6.96875 -2.828125 C 4.789062 -5.234375 3.703125 -8.472656 3.703125 -12.546875 L 3.703125 -29.40625 L 12.203125 -29.40625 L 12.203125 -13.390625 C 12.203125 -11.222656 12.710938 -9.539062 13.734375 -8.34375 C 14.765625 -7.144531 16.175781 -6.546875 17.96875 -6.546875 C 19.914062 -6.546875 21.46875 -7.21875 22.625 -8.5625 C 23.78125 -9.90625 24.359375 -11.738281 24.359375 -14.0625 L 24.359375 -29.40625 L 32.875 -29.40625 L 32.875 0 L 26.546875 0 L 25.640625 -3.296875 C 24.484375 -1.921875 23.066406 -0.894531 21.390625 -0.21875 C 19.710938 0.445312 17.898438 0.78125 15.953125 0.78125 Z M 15.953125 0.78125 "/></g></g></g><g fill="#733702" fill-opacity="1"><g transform="translate(187.606146, 267.627491)"><g><path d="M 18.59375 12.4375 C 14.332031 12.4375 10.867188 11.460938 8.203125 9.515625 C 5.535156 7.578125 4.015625 4.910156 3.640625 1.515625 L 11.921875 1.515625 C 12.222656 2.785156 12.941406 3.773438 14.078125 4.484375 C 15.222656 5.191406 16.671875 5.546875 18.421875 5.546875 C 23.128906 5.546875 25.484375 3.15625 25.484375 -1.625 L 25.484375 -3.703125 C 24.285156 -2.765625 22.910156 -2.039062 21.359375 -1.53125 C 19.816406 -1.03125 18.164062 -0.78125 16.40625 -0.78125 C 13.644531 -0.78125 11.191406 -1.40625 9.046875 -2.65625 C 6.898438 -3.90625 5.21875 -5.640625 4 -7.859375 C 2.789062 -10.085938 2.1875 -12.640625 2.1875 -15.515625 C 2.1875 -18.390625 2.789062 -20.925781 4 -23.125 C 5.21875 -25.332031 6.898438 -27.0625 9.046875 -28.3125 C 11.191406 -29.5625 13.644531 -30.1875 16.40625 -30.1875 C 18.5 -30.1875 20.429688 -29.835938 22.203125 -29.140625 C 23.972656 -28.453125 25.492188 -27.457031 26.765625 -26.15625 L 27.65625 -29.40625 L 33.984375 -29.40625 L 33.984375 -1.625 C 33.984375 1.289062 33.359375 3.800781 32.109375 5.90625 C 30.859375 8.019531 29.078125 9.632812 26.765625 10.75 C 24.453125 11.875 21.726562 12.4375 18.59375 12.4375 Z M 10.578125 -15.515625 C 10.578125 -13.234375 11.285156 -11.382812 12.703125 -9.96875 C 14.128906 -8.550781 15.960938 -7.84375 18.203125 -7.84375 C 20.441406 -7.84375 22.28125 -8.550781 23.71875 -9.96875 C 25.15625 -11.382812 25.875 -13.234375 25.875 -15.515625 C 25.875 -17.753906 25.15625 -19.582031 23.71875 -21 C 22.28125 -22.414062 20.441406 -23.125 18.203125 -23.125 C 15.960938 -23.125 14.128906 -22.414062 12.703125 -21 C 11.285156 -19.582031 10.578125 -17.753906 10.578125 -15.515625 Z M 10.578125 -15.515625 "/></g></g></g><g fill="#733702" fill-opacity="1"><g transform="translate(222.544802, 267.627491)"><g><path d="M 18.140625 0.78125 C 15.003906 0.78125 12.234375 0.128906 9.828125 -1.171875 C 7.421875 -2.484375 5.546875 -4.304688 4.203125 -6.640625 C 2.859375 -8.972656 2.1875 -11.671875 2.1875 -14.734375 C 2.1875 -17.785156 2.863281 -20.46875 4.21875 -22.78125 C 5.582031 -25.101562 7.46875 -26.914062 9.875 -28.21875 C 12.289062 -29.53125 15.082031 -30.1875 18.25 -30.1875 C 21.613281 -30.1875 24.515625 -29.4375 26.953125 -27.9375 C 29.398438 -26.445312 31.269531 -24.359375 32.5625 -21.671875 C 33.851562 -18.984375 34.40625 -15.847656 34.21875 -12.265625 L 10.640625 -12.265625 C 11.046875 -10.242188 11.941406 -8.703125 13.328125 -7.640625 C 14.710938 -6.578125 16.375 -6.046875 18.3125 -6.046875 C 19.726562 -6.046875 21.023438 -6.316406 22.203125 -6.859375 C 23.378906 -7.398438 24.320312 -8.15625 25.03125 -9.125 L 33.65625 -9.125 C 32.382812 -6.03125 30.382812 -3.601562 27.65625 -1.84375 C 24.9375 -0.09375 21.765625 0.78125 18.140625 0.78125 Z M 10.703125 -17.640625 L 25.984375 -17.640625 C 25.492188 -19.429688 24.585938 -20.835938 23.265625 -21.859375 C 21.941406 -22.890625 20.289062 -23.40625 18.3125 -23.40625 C 16.445312 -23.40625 14.832031 -22.890625 13.46875 -21.859375 C 12.101562 -20.835938 11.179688 -19.429688 10.703125 -17.640625 Z M 10.703125 -17.640625 "/></g></g></g><g fill="#733702" fill-opacity="1"><g transform="translate(255.523719, 267.627491)"><g><path d="M 18.421875 0 C 14.691406 0 11.828125 -0.957031 9.828125 -2.875 C 7.828125 -4.800781 6.828125 -7.554688 6.828125 -11.140625 L 6.828125 -22.453125 L 1.125 -22.453125 L 1.125 -29.40625 L 3.75 -29.40625 C 5.351562 -29.40625 6.441406 -29.664062 7.015625 -30.1875 C 7.597656 -30.707031 8.003906 -31.710938 8.234375 -33.203125 L 8.734375 -37.015625 L 15.34375 -37.015625 L 15.34375 -29.40625 L 23.40625 -29.40625 L 23.40625 -22.453125 L 15.34375 -22.453125 L 15.34375 -12.4375 C 15.34375 -9.070312 16.984375 -7.390625 20.265625 -7.390625 L 23.796875 -7.390625 L 23.796875 0 Z M 18.421875 0 "/></g></g></g></svg>